<svg width="20" height="23" viewBox="0 0 20 23" fill="none" xmlns="http://www.w3.org/2000/svg">
<g clip-path="url(#clip0)">
<path d="M19.2857 1.42841H13.9286L13.5089 0.59359C13.42 0.415114 13.2831 0.264984 13.1135 0.160089C12.944 0.0551946 12.7485 -0.000303024 12.5491 -0.00016002H7.44643C7.24749 -0.000924776 7.05236 0.0543659 6.8834 0.159377C6.71443 0.264389 6.57846 0.414873 6.49107 0.59359L6.07143 1.42841H0.714286C0.524845 1.42841 0.343164 1.50367 0.209209 1.63762C0.0752549 1.77158 0 1.95326 0 2.1427L0 3.57127C0 3.76071 0.0752549 3.94239 0.209209 4.07635C0.343164 4.2103 0.524845 4.28556 0.714286 4.28556H19.2857C19.4752 4.28556 19.6568 4.2103 19.7908 4.07635C19.9247 3.94239 20 3.76071 20 3.57127V2.1427C20 1.95326 19.9247 1.77158 19.7908 1.63762C19.6568 1.50367 19.4752 1.42841 19.2857 1.42841V1.42841ZM2.375 20.8481C2.40907 21.3921 2.64918 21.9027 3.04645 22.2759C3.44373 22.6491 3.9683 22.8569 4.51339 22.857H15.4866C16.0317 22.8569 16.5563 22.6491 16.9535 22.2759C17.3508 21.9027 17.5909 21.3921 17.625 20.8481L18.5714 5.71413H1.42857L2.375 20.8481Z" fill="#E5E5E5"/>
</g>
<defs>
<clipPath id="clip0">
<rect width="20" height="22.8571" fill="white"/>
</clipPath>
</defs>
</svg>
