<svg width="50" height="51" viewBox="0 0 50 51" fill="none" xmlns="http://www.w3.org/2000/svg">
<path d="M3.89512 29.3103L1.41745 26.8326C0.368338 25.7835 0.368338 24.087 1.41745 23.0491L23.1027 1.35268C24.1518 0.303575 25.8483 0.303575 26.8862 1.35268L48.5715 23.0379C49.6206 24.087 49.6206 25.7835 48.5715 26.8214L46.0938 29.2991C45.0335 30.3594 43.3036 30.337 42.2657 29.2545L29.4643 15.817V47.8928C29.4643 49.3772 28.2701 50.5714 26.7858 50.5714H23.2143C21.7299 50.5714 20.5358 49.3772 20.5358 47.8928V15.817L7.72325 29.2656C6.6853 30.3594 4.95539 30.3817 3.89512 29.3103Z" fill="white"/>
</svg>
