<svg width="20" height="18" viewBox="0 0 20 18" fill="none" xmlns="http://www.w3.org/2000/svg">
<g clip-path="url(#clip0)">
<path d="M19.7747 15.2782C20.4156 16.3891 19.6111 17.7778 18.331 17.7778H1.66831C0.385773 17.7778 -0.414991 16.387 0.224662 15.2782L8.55612 0.832812C9.19734 -0.278611 10.8033 -0.276597 11.4434 0.832812L19.7747 15.2782V15.2782ZM9.99977 12.2917C9.11765 12.2917 8.40254 13.0068 8.40254 13.8889C8.40254 14.771 9.11765 15.4861 9.99977 15.4861C10.8819 15.4861 11.597 14.771 11.597 13.8889C11.597 13.0068 10.8819 12.2917 9.99977 12.2917ZM8.48334 6.55048L8.74091 11.2727C8.75296 11.4937 8.93567 11.6667 9.15695 11.6667H10.8426C11.0639 11.6667 11.2466 11.4937 11.2586 11.2727L11.5162 6.55048C11.5292 6.3118 11.3392 6.11111 11.1001 6.11111H8.89935C8.66032 6.11111 8.47032 6.3118 8.48334 6.55048V6.55048Z" fill="#FF8A01"/>
</g>
<defs>
<clipPath id="clip0">
<rect width="20" height="17.7778" fill="white"/>
</clipPath>
</defs>
</svg>
