<svg width="30" height="27" viewBox="0 0 30 27" fill="none" xmlns="http://www.w3.org/2000/svg">
<g clip-path="url(#clip0)">
<path d="M29.6621 22.9173C30.6235 24.5837 29.4168 26.6667 27.4966 26.6667H2.50258C0.578781 26.6667 -0.622365 24.5805 0.337115 22.9173L12.8343 1.24922C13.7961 -0.417916 16.2051 -0.414895 17.1652 1.24922L29.6621 22.9173V22.9173ZM14.9998 18.4375C13.6766 18.4375 12.6039 19.5101 12.6039 20.8333C12.6039 22.1565 13.6766 23.2292 14.9998 23.2292C16.3229 23.2292 17.3956 22.1565 17.3956 20.8333C17.3956 19.5101 16.3229 18.4375 14.9998 18.4375ZM12.7251 9.82573L13.1115 16.9091C13.1296 17.2405 13.4036 17.5 13.7356 17.5H16.264C16.5959 17.5 16.87 17.2405 16.8881 16.9091L17.2744 9.82573C17.2939 9.46771 17.0089 9.16666 16.6503 9.16666H13.3491C12.9906 9.16666 12.7056 9.46771 12.7251 9.82573V9.82573Z" fill="white"/>
</g>
<defs>
<clipPath id="clip0">
<rect width="30" height="26.6667" fill="white"/>
</clipPath>
</defs>
</svg>
